<mxfile host="app.diagrams.net" agent="Mozilla/5.0 (Windows NT 10.0; Win64; x64) AppleWebKit/537.36 (KHTML, like Gecko) Chrome/129.0.0.0 Safari/537.36 Edg/129.0.0.0" version="24.7.17">
  <diagram name="第 1 页" id="Qhw3YGAQM8Dc4AIBDSJ8">
    <mxGraphModel dx="148" dy="86" grid="1" gridSize="10" guides="1" tooltips="1" connect="1" arrows="1" fold="1" page="1" pageScale="1" pageWidth="827" pageHeight="1169" background="#000000" math="0" shadow="0">
      <root>
        <mxCell id="0" />
        <mxCell id="1" parent="0" />
        <mxCell id="4OjQyss1481nJFj07ht_-69" value="" style="shape=flexArrow;endArrow=classic;html=1;rounded=0;strokeColor=#4472C4;endWidth=4.674340349998367;endSize=1.5935162094763091;width=2.344139650872818;fillColor=#4472C4;" edge="1" parent="1">
          <mxGeometry width="50" height="50" relative="1" as="geometry">
            <mxPoint x="237" y="803.5" as="sourcePoint" />
            <mxPoint x="236.95" y="844" as="targetPoint" />
            <Array as="points">
              <mxPoint x="236.89" y="803.5" />
            </Array>
          </mxGeometry>
        </mxCell>
        <mxCell id="4OjQyss1481nJFj07ht_-28" value="" style="shape=flexArrow;endArrow=classic;html=1;rounded=0;strokeColor=#4472C4;endWidth=4.674340349998367;endSize=1.5935162094763091;width=2.344139650872818;fillColor=#4472C4;" edge="1" parent="1">
          <mxGeometry width="50" height="50" relative="1" as="geometry">
            <mxPoint x="156.04000000000002" y="803.5" as="sourcePoint" />
            <mxPoint x="155.99" y="844" as="targetPoint" />
            <Array as="points">
              <mxPoint x="155.93" y="803.5" />
            </Array>
          </mxGeometry>
        </mxCell>
        <mxCell id="4OjQyss1481nJFj07ht_-8" value="&lt;font color=&quot;#ffffff&quot;&gt;+&lt;/font&gt;" style="text;html=1;align=center;verticalAlign=middle;whiteSpace=wrap;rounded=0;opacity=80;" vertex="1" parent="1">
          <mxGeometry x="290" y="625" width="60" height="30" as="geometry" />
        </mxCell>
        <mxCell id="4OjQyss1481nJFj07ht_-13" value="&lt;font style=&quot;font-size: 16px;&quot; color=&quot;#ffffff&quot;&gt;N&lt;/font&gt;" style="text;html=1;align=center;verticalAlign=middle;whiteSpace=wrap;rounded=0;opacity=80;" vertex="1" parent="1">
          <mxGeometry x="80" y="641" width="50" height="20" as="geometry" />
        </mxCell>
        <mxCell id="4OjQyss1481nJFj07ht_-2" value="&lt;font style=&quot;font-size: 8px;&quot;&gt;Agent M&lt;sub&gt;1&lt;/sub&gt;&lt;/font&gt;" style="rounded=1;whiteSpace=wrap;html=1;fillColor=#76608a;strokeColor=#432D57;opacity=80;fontColor=#ffffff;" vertex="1" parent="1">
          <mxGeometry x="140" y="625" width="50" height="30" as="geometry" />
        </mxCell>
        <mxCell id="4OjQyss1481nJFj07ht_-3" value="&lt;font style=&quot;font-size: 8px;&quot;&gt;Agent M&lt;sub&gt;2&lt;/sub&gt;&lt;/font&gt;" style="rounded=1;whiteSpace=wrap;html=1;fillColor=#e51400;strokeColor=#B20000;opacity=80;fontColor=#ffffff;" vertex="1" parent="1">
          <mxGeometry x="210" y="625" width="50" height="30" as="geometry" />
        </mxCell>
        <mxCell id="4OjQyss1481nJFj07ht_-4" value="" style="endArrow=none;dashed=1;html=1;dashPattern=1 3;strokeWidth=2;rounded=0;strokeColor=#FFFFFF;opacity=80;" edge="1" parent="1">
          <mxGeometry width="50" height="50" relative="1" as="geometry">
            <mxPoint x="280" y="639.89" as="sourcePoint" />
            <mxPoint x="310" y="639.89" as="targetPoint" />
          </mxGeometry>
        </mxCell>
        <mxCell id="4OjQyss1481nJFj07ht_-5" value="&lt;font style=&quot;font-size: 8px;&quot;&gt;Agent M&lt;sub&gt;N&lt;/sub&gt;&lt;/font&gt;" style="rounded=1;whiteSpace=wrap;html=1;fillColor=#647687;strokeColor=#314354;opacity=80;fontColor=#ffffff;" vertex="1" parent="1">
          <mxGeometry x="330" y="625" width="50" height="30" as="geometry" />
        </mxCell>
        <mxCell id="4OjQyss1481nJFj07ht_-6" value="&lt;font color=&quot;#ffffff&quot;&gt;+&lt;/font&gt;" style="text;html=1;align=center;verticalAlign=middle;whiteSpace=wrap;rounded=0;opacity=80;" vertex="1" parent="1">
          <mxGeometry x="170" y="625" width="60" height="30" as="geometry" />
        </mxCell>
        <mxCell id="4OjQyss1481nJFj07ht_-7" value="&lt;font color=&quot;#ffffff&quot;&gt;+&lt;/font&gt;" style="text;html=1;align=center;verticalAlign=middle;whiteSpace=wrap;rounded=0;opacity=80;" vertex="1" parent="1">
          <mxGeometry x="240" y="625" width="60" height="30" as="geometry" />
        </mxCell>
        <mxCell id="4OjQyss1481nJFj07ht_-9" value="" style="shape=curlyBracket;whiteSpace=wrap;html=1;rounded=1;labelPosition=left;verticalLabelPosition=middle;align=right;verticalAlign=middle;strokeColor=#FFFFFF;size=0.5;opacity=80;" vertex="1" parent="1">
          <mxGeometry x="120" y="620" width="20" height="40" as="geometry" />
        </mxCell>
        <mxCell id="4OjQyss1481nJFj07ht_-10" value="" style="shape=curlyBracket;whiteSpace=wrap;html=1;rounded=1;flipH=1;labelPosition=right;verticalLabelPosition=middle;align=left;verticalAlign=middle;strokeColor=#FFFFFF;opacity=80;" vertex="1" parent="1">
          <mxGeometry x="380" y="620" width="20" height="40" as="geometry" />
        </mxCell>
        <mxCell id="4OjQyss1481nJFj07ht_-12" value="" style="endArrow=none;html=1;rounded=0;strokeColor=#FFFFFF;opacity=80;" edge="1" parent="1">
          <mxGeometry width="50" height="50" relative="1" as="geometry">
            <mxPoint x="91.5" y="639.9100000000001" as="sourcePoint" />
            <mxPoint x="116.5" y="640.07" as="targetPoint" />
          </mxGeometry>
        </mxCell>
        <mxCell id="4OjQyss1481nJFj07ht_-14" value="&lt;font style=&quot;font-size: 16px;&quot; color=&quot;#ffffff&quot;&gt;1&lt;/font&gt;" style="text;html=1;align=center;verticalAlign=middle;whiteSpace=wrap;rounded=0;opacity=80;" vertex="1" parent="1">
          <mxGeometry x="80" y="620" width="50" height="20" as="geometry" />
        </mxCell>
        <mxCell id="4OjQyss1481nJFj07ht_-16" value="&lt;span style=&quot;font-size: 8px;&quot;&gt;Layer j&lt;/span&gt;" style="rounded=1;whiteSpace=wrap;html=1;fillColor=#76608a;strokeColor=#432D57;fontColor=#ffffff;" vertex="1" parent="1">
          <mxGeometry x="212" y="811.5" width="50" height="20" as="geometry" />
        </mxCell>
        <mxCell id="4OjQyss1481nJFj07ht_-18" value="&lt;span style=&quot;font-size: 8px;&quot;&gt;Layer j&lt;/span&gt;" style="rounded=1;whiteSpace=wrap;html=1;fillColor=#a0522d;strokeColor=#6D1F00;fontColor=#ffffff;" vertex="1" parent="1">
          <mxGeometry x="131" y="811.5" width="50" height="20" as="geometry" />
        </mxCell>
        <mxCell id="4OjQyss1481nJFj07ht_-31" value="" style="rounded=1;whiteSpace=wrap;html=1;strokeColor=#432D57;fillColor=#76608a;opacity=80;fontColor=#ffffff;" vertex="1" parent="1">
          <mxGeometry x="217" y="796" width="40" height="5" as="geometry" />
        </mxCell>
        <mxCell id="4OjQyss1481nJFj07ht_-32" value="" style="rounded=1;whiteSpace=wrap;html=1;strokeColor=#432D57;fillColor=#76608a;opacity=80;fontColor=#ffffff;" vertex="1" parent="1">
          <mxGeometry x="136" y="795.5" width="40" height="5" as="geometry" />
        </mxCell>
        <mxCell id="4OjQyss1481nJFj07ht_-34" value="" style="rounded=1;whiteSpace=wrap;html=1;strokeColor=#6D1F00;fillColor=#A0522D;opacity=80;fontColor=#ffffff;" vertex="1" parent="1">
          <mxGeometry x="136" y="845.5" width="40" height="5" as="geometry" />
        </mxCell>
        <mxCell id="4OjQyss1481nJFj07ht_-38" value="" style="rounded=1;whiteSpace=wrap;html=1;strokeColor=#432D57;fillColor=#76608a;opacity=80;fontColor=#ffffff;" vertex="1" parent="1">
          <mxGeometry x="217" y="845.5" width="40" height="5" as="geometry" />
        </mxCell>
        <mxCell id="4OjQyss1481nJFj07ht_-40" value="&lt;font color=&quot;#ffffff&quot; style=&quot;font-size: 8px;&quot;&gt;X&lt;sub&gt;1&lt;/sub&gt;&lt;/font&gt;" style="text;html=1;align=center;verticalAlign=middle;whiteSpace=wrap;rounded=0;" vertex="1" parent="1">
          <mxGeometry x="126" y="795.5" width="5" height="3.5" as="geometry" />
        </mxCell>
        <mxCell id="4OjQyss1481nJFj07ht_-42" value="&lt;font style=&quot;font-size: 8px;&quot; color=&quot;#ffffff&quot;&gt;W&lt;sup&gt;T&lt;/sup&gt;X&lt;sub&gt;1&lt;/sub&gt;&lt;/font&gt;" style="text;html=1;align=center;verticalAlign=middle;whiteSpace=wrap;rounded=0;" vertex="1" parent="1">
          <mxGeometry x="120" y="845.5" width="5" height="3.5" as="geometry" />
        </mxCell>
        <mxCell id="4OjQyss1481nJFj07ht_-43" value="&lt;font style=&quot;font-size: 8px;&quot; color=&quot;#ffffff&quot;&gt;W&lt;sub&gt;i&lt;/sub&gt;&lt;sup&gt;T&lt;/sup&gt;X&lt;sub&gt;1&lt;/sub&gt;&lt;/font&gt;" style="text;html=1;align=center;verticalAlign=middle;whiteSpace=wrap;rounded=0;" vertex="1" parent="1">
          <mxGeometry x="201" y="845.5" width="5" height="3.5" as="geometry" />
        </mxCell>
        <mxCell id="4OjQyss1481nJFj07ht_-67" value="&lt;font style=&quot;font-size: 8px;&quot; color=&quot;#ffffff&quot;&gt;X&lt;sub&gt;1&lt;/sub&gt;&lt;/font&gt;" style="text;html=1;align=center;verticalAlign=middle;whiteSpace=wrap;rounded=0;" vertex="1" parent="1">
          <mxGeometry x="206" y="795" width="5" height="3.5" as="geometry" />
        </mxCell>
        <mxCell id="4OjQyss1481nJFj07ht_-72" value="&lt;font style=&quot;font-size: 6px;&quot; color=&quot;#ffffff&quot;&gt;~&lt;/font&gt;" style="text;html=1;align=center;verticalAlign=middle;whiteSpace=wrap;rounded=0;" vertex="1" parent="1">
          <mxGeometry x="117" y="787" width="20" height="10" as="geometry" />
        </mxCell>
        <mxCell id="4OjQyss1481nJFj07ht_-73" value="&lt;font style=&quot;font-size: 6px;&quot; color=&quot;#ffffff&quot;&gt;~&lt;/font&gt;" style="text;html=1;align=center;verticalAlign=middle;whiteSpace=wrap;rounded=0;" vertex="1" parent="1">
          <mxGeometry x="117" y="836.5" width="20" height="10" as="geometry" />
        </mxCell>
      </root>
    </mxGraphModel>
  </diagram>
</mxfile>
